HIERARCHY
ROOT Hips
{
    OFFSET 0.000 93.594 0.000
    CHANNELS 6 Xposition Yposition Zposition Yrotation Xrotation Zrotation
    JOINT RightHip
    {
        OFFSET -9.500 -1.594 0.000
        CHANNELS 3 Yrotation Xrotation Zrotation
        JOINT RightKnee
        {
            OFFSET 0.000 -42.000 0.000
            CHANNELS 3 Yrotation Xrotation Zrotation
            JOINT RightAnkle
            {
                OFFSET 0.000 -42.000 0.000
                CHANNELS 3 Yrotation Xrotation Zrotation
                End Site
                {
                    OFFSET 0.000 -8.000 17.500
                }
            }
        }
    }
    JOINT LeftHip
    {
        OFFSET 9.500 -1.594 0.000
        CHANNELS 3 Yrotation Xrotation Zrotation
        JOINT LeftKnee
        {
            OFFSET 0.000 -42.000 0.000
            CHANNELS 3 Yrotation Xrotation Zrotation
            JOINT LeftAnkle
            {
                OFFSET 0.000 -42.000 0.000
                CHANNELS 3 Yrotation Xrotation Zrotation
                End Site
                {
                    OFFSET 0.000 -8.000 17.500
                }
            }
        }
    }
    JOINT Chest
    {
        OFFSET 0.000 14.348 0.000
        CHANNELS 3 Yrotation Xrotation Zrotation
        JOINT Chest2
        {
            OFFSET 0.000 9.746 0.000
            CHANNELS 3 Yrotation Xrotation Zrotation
            JOINT Chest3
            {
                OFFSET 0.000 10.149 0.000
                CHANNELS 3 Yrotation Xrotation Zrotation
                JOINT Chest4
                {
                    OFFSET 0.000 9.746 0.000
                    CHANNELS 3 Yrotation Xrotation Zrotation
                    JOINT Neck
                    {
                        OFFSET 0.000 10.417 0.000
                        CHANNELS 3 Yrotation Xrotation Zrotation
                        JOINT Head
                        {
                            OFFSET 0.000 9.000 0.000
                            CHANNELS 3 Yrotation Xrotation Zrotation
                            End Site
                            {
                                OFFSET 0.000 16.000 0.000
                            }
                        }
                    }
                    JOINT RightCollar
                    {
                        OFFSET -3.200 6.945 0.000
                        CHANNELS 3 Yrotation Xrotation Zrotation
                        JOINT RightShoulder
                        {
                            OFFSET -12.800 0.000 0.000
                            CHANNELS 3 Yrotation Xrotation Zrotation
                            JOINT RightElbow
                            {
OFFSET -0 -27 0.000
						CHANNELS 3 Xrotation Yrotation Zrotation
                                JOINT RightWrist
                                {
OFFSET -0 -26 0.000
						CHANNELS 3 Xrotation Yrotation Zrotation
                                    JOINT RightFinger0
                                    {
OFFSET -0.196 -2.56 3.210
						CHANNELS 3 Xrotation Yrotation Zrotation
                                        JOINT RightFinger01
                                        {
OFFSET -0 -3.788 0.000
						CHANNELS 3 Xrotation Yrotation Zrotation
                                            JOINT RightFinger0Nub
                                            {
OFFSET -0 -2.631 0.000
						CHANNELS 3 Xrotation Yrotation Zrotation
                                                End Site
                                                {
OFFSET 0 -2.256 0
                                                }
                                            }
                                        }
                                    }
                                    JOINT RightFinger1
                                    {
OFFSET -0.523 -3.316 2.035
						CHANNELS 3 Xrotation Yrotation Zrotation
                                        JOINT RightFinger11
                                        {
OFFSET 0.094 -5.366 1.028
						CHANNELS 3 Xrotation Yrotation Zrotation
                                            JOINT RightFinger12
                                            {
OFFSET -0 -3.723 0.000
						CHANNELS 3 Xrotation Yrotation Zrotation
                                                JOINT RightFinger1Nub
                                                {
OFFSET -0 -2.111 0.000
						CHANNELS 3 Xrotation Yrotation Zrotation
                                                    End Site
                                                    {
OFFSET 0 -1.857 0
                                                    }
                                                }
                                            }
                                        }
                                    }
                                    JOINT RightFinger2
                                    {
OFFSET -0.532 -3.479 0.778
						CHANNELS 3 Xrotation Yrotation Zrotation
                                        JOINT RightFinger21
                                        {
OFFSET 0.086 -5.322 0.323
						CHANNELS 3 Xrotation Yrotation Zrotation
                                            JOINT RightFinger22
                                            {
OFFSET -0 -4.062 0.000
						CHANNELS 3 Xrotation Yrotation Zrotation
                                                JOINT RightFinger2Nub
                                                {
OFFSET -0 -2.547 0.000
						CHANNELS 3 Xrotation Yrotation Zrotation
                                                    End Site
                                                    {
OFFSET 0 -2.031 0
                                                    }
                                                }
                                            }
                                        }
                                    }
                                    JOINT RightFinger3
                                    {
OFFSET -0.553 -3.461 -0.133
						CHANNELS 3 Xrotation Yrotation Zrotation
                                        JOINT RightFinger31
                                        {
OFFSET 0.023 -4.767 -0.493
						CHANNELS 3 Xrotation Yrotation Zrotation
                                            JOINT RightFinger32
                                            {
OFFSET -0 -3.541 0.000
						CHANNELS 3 Xrotation Yrotation Zrotation
                                                JOINT RightFinger3Nub
                                                {
OFFSET -0 -2.456 0.000
						CHANNELS 3 Xrotation Yrotation Zrotation
                                                    End Site
                                                    {
OFFSET 0 -1.91 0
                                                    }
                                                }
                                            }
                                        }
                                    }
                                    JOINT RightFinger4
                                    {
OFFSET -0.483 -3.251 -1.236
						CHANNELS 3 Xrotation Yrotation Zrotation
                                        JOINT RightFinger41
                                        {
OFFSET 0.023 -4.259 -1.122
						CHANNELS 3 Xrotation Yrotation Zrotation
                                            JOINT RightFinger42
                                            {
OFFSET -0 -2.835 0.000
						CHANNELS 3 Xrotation Yrotation Zrotation
                                                JOINT RightFinger4Nub
                                                {
OFFSET -0 -1.792 0.000
						CHANNELS 3 Xrotation Yrotation Zrotation
                                                    End Site
                                                    {
OFFSET 0 -1.692 0
                                                    }
                                                }
                                            }
                                        }
                                    }
                                }
                            }
                        }
                    }
                    JOINT LeftCollar
                    {
                        OFFSET 3.200 6.945 0.000
                        CHANNELS 3 Yrotation Xrotation Zrotation
                        JOINT LeftShoulder
                        {
                            OFFSET 12.800 0.000 0.000
                            CHANNELS 3 Yrotation Xrotation Zrotation
                            JOINT LeftElbow
                            {
OFFSET -0 -27 0.000
						CHANNELS 3 Xrotation Yrotation Zrotation
                                JOINT LeftWrist
                                {
OFFSET -0 -26 0.000
						CHANNELS 3 Xrotation Yrotation Zrotation
                                    JOINT LeftFinger0
                                    {
OFFSET -0.196 -2.56 3.210
						CHANNELS 3 Xrotation Yrotation Zrotation
                                        JOINT LeftFinger01
                                        {
OFFSET -0 -3.788 0.000
						CHANNELS 3 Xrotation Yrotation Zrotation
                                            JOINT LeftFinger0Nub
                                            {
OFFSET -0 -2.631 0.000
						CHANNELS 3 Xrotation Yrotation Zrotation
                                                End Site
                                                {
OFFSET 0 -2.256 0
                                                }
                                            }
                                        }
                                    }
                                    JOINT LeftFinger1
                                    {
OFFSET -0.523 -3.316 2.035
						CHANNELS 3 Xrotation Yrotation Zrotation
                                        JOINT LeftFinger11
                                        {
OFFSET 0.094 -5.366 1.028
						CHANNELS 3 Xrotation Yrotation Zrotation
                                            JOINT LeftFinger12
                                            {
OFFSET -0 -3.723 0.000
						CHANNELS 3 Xrotation Yrotation Zrotation
                                                JOINT LeftFinger1Nub
                                                {
OFFSET -0 -2.111 0.000
						CHANNELS 3 Xrotation Yrotation Zrotation
                                                    End Site
                                                    {
OFFSET 0 -1.857 0
                                                    }
                                                }
                                            }
                                        }
                                    }
                                    JOINT LeftFinger2
                                    {
OFFSET -0.532 -3.479 0.778
						CHANNELS 3 Xrotation Yrotation Zrotation
                                        JOINT LeftFinger21
                                        {
OFFSET 0.086 -5.322 0.323
						CHANNELS 3 Xrotation Yrotation Zrotation
                                            JOINT LeftFinger22
                                            {
OFFSET -0 -4.062 0.000
						CHANNELS 3 Xrotation Yrotation Zrotation
                                                JOINT LeftFinger2Nub
                                                {
OFFSET -0 -2.547 0.000
						CHANNELS 3 Xrotation Yrotation Zrotation
                                                    End Site
                                                    {
OFFSET 0 -2.031 0
                                                    }
                                                }
                                            }
                                        }
                                    }
                                    JOINT LeftFinger3
                                    {
OFFSET -0.553 -3.461 -0.133
						CHANNELS 3 Xrotation Yrotation Zrotation
                                        JOINT LeftFinger31
                                        {
OFFSET 0.023 -4.767 -0.493
						CHANNELS 3 Xrotation Yrotation Zrotation
                                            JOINT LeftFinger32
                                            {
OFFSET -0 -3.541 0.000
						CHANNELS 3 Xrotation Yrotation Zrotation
                                                JOINT LeftFinger3Nub
                                                {
OFFSET -0 -2.456 0.000
						CHANNELS 3 Xrotation Yrotation Zrotation
                                                    End Site
                                                    {
OFFSET 0 -1.91 0
                                                    }
                                                }
                                            }
                                        }
                                    }
                                    JOINT LeftFinger4
                                    {
OFFSET -0.483 -3.251 -1.236
						CHANNELS 3 Xrotation Yrotation Zrotation
                                        JOINT LeftFinger41
                                        {
OFFSET 0.023 -4.259 -1.122
						CHANNELS 3 Xrotation Yrotation Zrotation
                                            JOINT LeftFinger42
                                            {
OFFSET -0 -2.835 0.000
						CHANNELS 3 Xrotation Yrotation Zrotation
                                                JOINT LeftFinger4Nub
                                                {
OFFSET -0 -1.792 0.000
						CHANNELS 3 Xrotation Yrotation Zrotation
                                                    End Site
                                                    {
OFFSET 0 -1.692 0
                                                    }
                                                }
                                            }
                                        }
                                    }
                                }
                            }
                        }
                    }
                }
            }
        }
    }
}
MOTION

Frames: 7
Frame Time: 0.017
-117.84 83.25 -22.13 175.68 -0.13 -1.54 3.05 -11.11 -7.36 0.00 31.88 0.00 -3.36 -18.52 7.79 -5.78 -14.82 15.63 -0.00 31.88 -0.00 4.76 -10.77 -14.35 -7.90 10.20 0.31 -1.97 2.60 0.21 -3.23 4.32 0.29 -2.65 0.65 1.59 -33.92 34.73 19.08 -17.98 41.32 12.40 16.11 -4.53 -21.07 -35.62 6.03 -43.02 -18.91 5.38 29.01 -6.9 17.49 31.32 -45.28 -0 26.47 19.97 -0 -3.35 15.22 -0 0.00 0 -0 0.00 -15 -0 18.58 0 -0 10.05 0 -0 5.02 0 -0 0.00 0 -0 -5.82 0 -0 -5.82 0 -0 -5.82 0 -0 0.00 15 -0 -6.37 0 -0 -6.37 0 -0 -6.37 0 -0 0.00 25 -0 -27.85 0 -0 -27.85 0 -0 -27.85 -13.68 4.33 12.61 -30.58 -55.67 51.62 -26.62 -14.87 28.23 -27.57 15.09 24.85 -8.90 0 -33.43 -7.76 0 10.78 38.99 0 0.00 0.00 0 0.00 -15.00 0 5.67 0.00 0 25.95 0.00 0 12.98 0.00 0 0.00 0.00 0 9.17 0.00 0 9.17 0.00 0 9.17 0.00 0 0.00 15.00 0 40.76 0.00 0 40.76 0.00 0 40.76 0.00 0 0.00 25.00 0 1.36 0.00 0 1.36 0.00 0 1.36 
-118.18 89.21 -21.73 177.33 0.08 -1.90 1.62 -10.99 -7.21 -0.00 31.82 -0.00 -3.62 -18.74 8.07 -5.71 -14.67 15.71 -0.00 29.74 -0.00 3.26 -10.84 -13.42 -8.55 10.86 0.16 -2.13 2.77 0.19 -3.51 4.59 0.26 -2.64 0.63 1.63 -33.46 34.75 20.08 -17.15 41.14 13.27 16.25 -5.28 -21.63 -36.46 4.75 -43.6 -18.07 6.12 30.98 -6.3 18.42 35.55 -44.49 -0 26.22 21.56 -0 -3.61 14.79 -0 0.00 0 -0 0.00 -15 -0 11.48 0 -0 10.15 0 -0 5.08 0 -0 0.00 0 -0 -7.73 0 -0 -7.73 0 -0 -7.73 0 -0 0.00 15 -0 -7.79 0 -0 -7.79 0 -0 -7.79 0 -0 0.00 25 -0 -27.64 0 -0 -27.64 0 -0 -27.64 -12.92 3.90 12.60 -29.26 -53.78 49 -29.83 -20.73 28.02 -26.59 14.81 23.70 -8.28 0 -32.21 -6.52 0 12.01 35.66 0 0.00 0.00 0 0.00 -15.00 0 -1.18 0.00 0 32.47 0.00 0 16.23 0.00 0 0.00 0.00 0 10.41 0.00 0 10.41 0.00 0 10.41 0.00 0 0.00 15.00 0 38.04 0.00 0 38.04 0.00 0 38.04 0.00 0 0.00 25.00 0 2.21 0.00 0 2.21 0.00 0 2.21 
-118.54 90.25 -21.33 177.33 0.08 -1.90 2.23 -11.04 -7.53 0.00 32.17 0.00 -4.11 -19.05 8.55 -5.07 -14.92 15.44 0.00 29.58 0.00 3.01 -11.82 -12.84 -8.55 10.86 0.16 -2.13 2.77 0.19 -3.51 4.59 0.26 -2.64 0.63 1.63 -33.46 34.75 20.08 -17.15 41.14 13.27 16.98 -4.56 -22.82 -37.31 5.12 -42.46 -17.99 6.04 29.05 1.31 23.57 44.64 -45.5 -0 22.48 19.53 -0 -7.34 14.59 -0 0.00 0 -0 0.00 -15 -0 -4.11 0 -0 7.21 0 -0 3.60 0 -0 0.00 0 -0 -11.92 0 -0 -11.92 0 -0 -11.92 0 -0 0.00 15 -0 -11.98 0 -0 -11.98 0 -0 -11.98 0 -0 0.00 25 -0 -27.74 0 -0 -27.74 0 -0 -27.74 -12.92 3.90 12.60 -25.35 -52.41 43.89 -33.41 -25.26 25.92 -24.98 13.49 19.80 -6.42 0 -29.35 -2.79 0 14.87 33.74 0 0.00 0.00 0 0.00 -15.00 0 0.49 0.00 0 32.47 0.00 0 16.24 0.00 0 0.00 0.00 0 10.49 0.00 0 10.49 0.00 0 10.49 0.00 0 0.00 15.00 0 33.52 0.00 0 33.52 0.00 0 33.52 0.00 0 0.00 25.00 0 4.74 0.00 0 4.74 0.00 0 4.74 
-119.00 90.48 -20.94 177.33 0.08 -1.90 2.79 -11.10 -7.88 -0.00 32.55 0.00 -4.52 -19.42 9.04 -4.53 -15.57 15.14 -0.00 30.09 -0.00 2.39 -12.37 -12.21 -8.55 10.86 0.16 -2.13 2.77 0.19 -3.51 4.59 0.26 -2.64 0.63 1.63 -33.46 34.75 20.08 -17.15 41.14 13.27 18.14 -3.79 -23.93 -38.59 5.55 -41.5 -18.01 6.37 26.84 4.14 25.83 44.98 -45.6 -0 22.32 19.35 -0 -7.50 14.72 -0 0.00 0 -0 0.00 -15 -0 -9.38 0 -0 5.48 0 -0 2.74 0 -0 0.00 0 -0 -11.96 0 -0 -11.96 0 -0 -11.96 0 -0 0.00 15 -0 -11.95 0 -0 -11.95 0 -0 -11.95 0 -0 0.00 25 -0 -25.45 0 -0 -25.45 0 -0 -25.45 -12.92 3.90 12.60 -21.74 -51.13 38.81 -37.20 -29.02 22.34 -25.86 13.74 18.39 -4.45 0 -28.23 1.15 0 15.98 24.60 0 0.00 0.00 0 0.00 -15.00 0 -1.71 0.00 0 18.89 0.00 0 9.45 0.00 0 0.00 0.00 0 3.10 0.00 0 3.10 0.00 0 3.10 0.00 0 0.00 15.00 0 31.60 0.00 0 31.60 0.00 0 31.60 0.00 0 0.00 25.00 0 6.80 0.00 0 6.80 0.00 0 6.80 
-119.79 90.66 -20.72 179.09 0.28 -2.25 1.53 -10.71 -7.77 -0.00 32.26 0.00 -5.09 -19.78 9.53 -4.76 -16.67 14.98 0.00 30.48 0.00 0.60 -12.58 -11.15 -9.12 11.56 0.02 -2.27 2.95 0.18 -3.74 4.88 0.23 -2.63 0.61 1.67 -33.09 34.76 21.19 -16.34 40.99 14.20 19.10 -4.30 -24.31 -40.12 4.16 -42.44 -19.77 12.45 21.11 3.29 23.32 50.20 -45.76 -0 21.65 19.02 -0 -8.18 10.46 -0 0.00 0 -0 0.00 -15 -0 -13.90 0 -0 9.07 0 -0 4.53 0 -0 0.00 0 -0 -11.96 0 -0 -11.96 0 -0 -11.96 0 -0 0.00 15 -0 -11.26 0 -0 -11.26 0 -0 -11.26 0 -0 0.00 25 -0 -25.47 0 -0 -25.47 0 -0 -25.47 -11.94 3.68 12.88 -21.33 -49.96 36.22 -39.09 -30.83 23.82 -25.00 15.15 9.29 -2.68 0 -25.23 4.70 0 18.98 17.45 0 0.00 0.00 0 0.00 -15.00 0 -5.75 0.00 0 -27.09 0.00 0 -13.54 0.00 0 0.00 0.00 0 -0.55 0.00 0 -0.55 0.00 0 -0.55 0.00 0 0.00 15.00 0 28.42 0.00 0 28.42 0.00 0 28.42 0.00 0 0.00 25.00 0 11.15 0.00 0 11.15 0.00 0 11.15 
-120.50 90.76 -20.51 -178.99 0.89 -2.48 0.17 -10.81 -7.84 0.00 32.03 -0.00 -5.73 -20.01 10.02 -6.24 -17.97 14.80 0.00 31.00 0.00 -0.12 -12.68 -10.45 -9.69 11.97 -0.16 -2.42 3.05 0.15 -3.98 5.04 0.17 -2.62 0.58 1.71 -32.84 34.81 22.29 -15.59 40.92 15.12 19.75 -4.80 -24.72 -41.19 2.64 -43.41 -20.5 15.87 20.37 3.44 23.88 48.35 -46.07 -0 20.90 18.41 -0 -8.92 5.82 -0 0.00 0 -0 0.00 -15 -0 -16.33 0 -0 13.50 0 -0 6.75 0 -0 0.00 0 -0 -11.83 0 -0 -11.83 0 -0 -11.83 0 -0 0.00 15 -0 -10.48 0 -0 -10.48 0 -0 -10.48 0 -0 0.00 25 -0 -26.16 0 -0 -26.16 0 -0 -26.16 -11.87 2.57 12.12 -21.79 -46.60 35.45 -41.10 -31.88 25.49 -23.23 17.05 -0.30 -1.09 0 -22.01 7.87 0 22.21 9.76 0 0.00 0.00 0 0.00 -15.00 0 -9.81 0.00 0 -33.34 0.00 0 -16.67 0.00 0 0.00 0.00 0 -5.41 0.00 0 -5.41 0.00 0 -5.41 0.00 0 0.00 15.00 0 19.15 0.00 0 19.15 0.00 0 19.15 0.00 0 0.00 25.00 0 12.67 0.00 0 12.67 0.00 0 12.67 
-120.98 90.80 -20.25 -173.23 2.29 -2.76 -5.52 -10.90 -7.69 -0.00 31.21 -0.00 -6.04 -20.31 10.37 -11.60 -20.26 15.22 0.00 31.33 0.00 -1.05 -12.24 -9.95 -10.58 12.74 -0.68 -2.65 3.24 0.05 -4.38 5.31 -0.00 -2.64 0.44 1.81 -33.55 35.02 25.22 -14.35 41.38 17.38 17.17 -6.71 -23.29 -39.09 -3.43 -47.77 -17.51 19.09 23.36 2.5 24.49 45.79 -46.42 -0 20.39 17.69 -0 -9.43 5.93 -0 0.00 0 -0 0.00 -15 -0 -17.69 0 -0 4.14 0 -0 2.07 0 -0 0.00 0 -0 -11.85 0 -0 -11.85 0 -0 -11.85 0 -0 0.00 15 -0 -10.43 0 -0 -10.43 0 -0 -10.43 0 -0 0.00 25 -0 -27.62 0 -0 -27.62 0 -0 -27.62 -13.89 1.65 9.35 -27.57 -41.45 40.82 -44.35 -34.22 22.14 -17.74 18.84 -9.58 0.30 0 -16.82 10.64 0 27.40 0.01 0 0.00 0.00 0 0.00 -15.00 0 -8.21 0.00 0 -24.23 0.00 0 -12.11 0.00 0 0.00 0.00 0 -4.07 0.00 0 -4.07 0.00 0 -4.07 0.00 0 0.00 15.00 0 21.56 0.00 0 21.56 0.00 0 21.56 0.00 0 0.00 25.00 0 -8.44 0.00 0 -8.44 0.00 0 -8.44 
